<svg id="Capa_1" enable-background="new 0 0 512 512" height="512" viewBox="0 0 512 512" width="512" xmlns="http://www.w3.org/2000/svg"><g id="Nib"><path d="m128 416h256v96h-256z" fill="#c8fa64"/><path d="m272 28.801 144 259.199c-35.199 0-64 28.801-64 64v64h-192v-64c0-17.6-7.039-33.6-18.881-45.119-11.519-11.842-27.519-18.881-45.119-18.881l144-259.199z" fill="#4de600"/><path d="m304 272c0 26.561-21.439 48-48 48s-48-21.439-48-48c0-20.801 13.439-38.4 32-45.119v-198.08l16-28.801 16 28.801v198.08c18.561 6.719 32 24.318 32 45.119z" fill="#c8fa64"/><path d="m160 416h192v64h-192z" fill="#0c0"/></g></svg>