<svg id="Capa_1" enable-background="new 0 0 512 512" height="512" viewBox="0 0 512 512" width="512" xmlns="http://www.w3.org/2000/svg"><g id="Hide"><path d="m512 256s-114.561 128-256 128c-31.359 0-61.439-6.4-89.279-16-11.201-4.16-21.76-8.641-32-13.439-80.321-37.76-134.721-98.561-134.721-98.561s114.561-128 256-128c31.359 0 61.439 6.4 89.279 16 11.201 4.16 21.76 8.641 32 13.439 80.321 37.76 134.721 98.561 134.721 98.561z" fill="#f9f"/><path d="m320 256c0 35.199-28.801 64-64 64-11.84 0-22.721-3.199-32.32-8.961-9.28-5.439-17.28-13.439-22.719-22.719-5.762-9.6-8.961-20.48-8.961-32.32 0-35.199 28.801-64 64-64 11.84 0 22.721 3.199 32.32 8.961 9.28 5.439 17.28 13.439 22.719 22.719 5.762 9.599 8.961 20.48 8.961 32.32z" fill="#d580ff"/><path d="m512 22.721-134.721 134.718c-10.24-4.799-20.799-9.279-32-13.439l144-144z" fill="#d580ff"/><g><path d="m377.279 157.439c-10.24-4.799-20.799-9.279-32-13.439l-210.558 210.561c10.24 4.799 20.799 9.279 32 13.439z" fill="#96f"/></g><path d="m166.721 368-144 144-22.721-22.721 134.721-134.719c10.24 4.799 20.799 9.28 32 13.44z" fill="#d580ff"/></g></svg>