<svg id="Capa_1" enable-background="new 0 0 512 512" height="512" viewBox="0 0 512 512" width="512" xmlns="http://www.w3.org/2000/svg"><g id="Wall_Clock"><path d="m448 512h-384c-35.346 0-64-28.654-64-64v-384c0-35.346 28.654-64 64-64h384c35.346 0 64 28.654 64 64v384c0 35.346-28.654 64-64 64z" fill="#d580ff"/><path d="m64 64h384v384h-384z" fill="#f9f" transform="matrix(0 1 -1 0 512 0)"/><g fill="#d580ff"><path d="m240 96h32v32h-32z"/><path d="m240 384h32v32h-32z"/><path d="m138.177 138.177h32v32h-32z" transform="matrix(.707 -.707 .707 .707 -63.862 154.177)"/><path d="m341.823 341.823h32v32h-32z" transform="matrix(.707 -.707 .707 .707 -148.215 357.823)"/><path d="m96 240h32v32h-32z"/><path d="m384 240h32v32h-32z"/><path d="m138.177 341.823h32v32h-32z" transform="matrix(.707 -.707 .707 .707 -207.862 213.823)"/><path d="m341.823 138.177h32v32h-32z" transform="matrix(.707 -.707 .707 .707 -4.215 298.177)"/><path d="m240 160h32v112h-32z"/><path d="m272 240h64v32h-64z"/></g><path d="m240 240h32v32h-32z" fill="#96f"/></g></svg>