<svg id="Capa_1" enable-background="new 0 0 512 512" height="512" viewBox="0 0 512 512" width="512" xmlns="http://www.w3.org/2000/svg"><g id="Radio_Antenna"><path d="m480 480h-448c-17.673 0-32-14.327-32-32v-256c0-17.673 14.327-32 32-32h448c17.673 0 32 14.327 32 32v256c0 17.673-14.327 32-32 32z" fill="#4db5ff"/><g fill="#80eaff"><path d="m65.92 384h156.16c-20.16 19.84-47.68 32-78.08 32s-57.92-12.16-78.08-32z"/><path d="m33.279 320h221.441c-1.602 11.199-4.801 22.08-9.92 32h-201.601c-5.119-9.92-8.318-20.801-9.92-32z"/><path d="m222.08 224h-156.16c20.16-19.84 47.68-32 78.08-32s57.92 12.16 78.08 32z"/><path d="m254.721 288h-221.442c1.602-11.199 4.801-22.08 9.92-32h201.602c5.119 9.92 8.318 20.801 9.92 32z"/><path d="m222.08 224h-156.16c20.16-19.84 47.68-32 78.08-32s57.92 12.16 78.08 32z"/><path d="m254.721 288h-221.442c1.602-11.199 4.801-22.08 9.92-32h201.602c5.119 9.92 8.318 20.801 9.92 32z"/><path d="m254.721 320c-1.602 11.199-4.801 22.08-9.92 32h-201.602c-5.119-9.92-8.318-20.801-9.92-32z"/><path d="m222.08 384c-20.16 19.84-47.68 32-78.08 32s-57.92-12.16-78.08-32z"/><path d="m320 224h160v64h-160z"/><circle cx="352" cy="352" r="32"/><circle cx="448" cy="352" r="32"/><path d="m32 0h32v160h-32z"/><path d="m32 480h64v32h-64z"/><path d="m416 480h64v32h-64z"/></g><path d="m32 448h64v32h-64z" fill="#37f"/><path d="m416 448h64v32h-64z" fill="#37f"/><path d="m32 160h32v32h-32z" fill="#37f"/></g></svg>