<svg id="Capa_1" enable-background="new 0 0 512 512" height="512" viewBox="0 0 512 512" width="512" xmlns="http://www.w3.org/2000/svg"><g id="Truck"><path d="m0 88h320v288h-320z" fill="#ffce33"/><path d="m512 248v128h-192v-224h128z" fill="#fffa50"/><path d="m473.6 248h-121.6v-64h78.721z" fill="#ffce33"/><path d="m464 376h-96c0-26.561 21.439-48 48-48s48 21.439 48 48z" fill="#ffa65c"/><path d="m464 376c0 26.561-21.439 48-48 48s-48-21.439-48-48z" fill="#ffce33"/><path d="m160 376h-96c0-26.561 21.439-48 48-48s48 21.439 48 48z" fill="#ffa65c"/><g fill="#fffa50"><path d="m160 376c0 26.561-21.439 48-48 48s-48-21.439-48-48z"/><path d="m0 248h320v32h-320z"/></g></g></svg>