<svg id="Capa_1" enable-background="new 0 0 512 512" height="512" viewBox="0 0 512 512" width="512" xmlns="http://www.w3.org/2000/svg"><g id="Phone"><path d="m304 32v448c0 17.6-14.4 32-32 32h-192c-17.6 0-32-14.4-32-32v-448c0-17.6 14.4-32 32-32h192c17.6 0 32 14.4 32 32z" fill="#4de600"/><path d="m304 128v256c-70.721 0-128-57.279-128-128s57.279-128 128-128z" fill="#0c0"/><g fill="#c8fa64"><path d="m432 256c0 70.721-57.279 128-128 128v-128z"/><path d="m464 224h-128v-128c70.721 0 128 57.279 128 128z"/><path d="m192 64h-32c-8.837 0-16-7.163-16-16 0-8.837 7.163-16 16-16h32c8.837 0 16 7.163 16 16 0 8.837-7.163 16-16 16z"/><circle cx="176" cy="432" r="16"/></g></g></svg>