<svg id="Capa_1" enable-background="new 0 0 512 512" height="512" viewBox="0 0 512 512" width="512" xmlns="http://www.w3.org/2000/svg"><g id="Shopping_Bag"><path d="m96 160h320v352h-320z" fill="#4de600"/><path d="m352 96v64h-32v-64c0-17.6-7.039-33.6-18.881-45.119-11.519-11.842-27.519-18.881-45.119-18.881-35.199 0-64 28.801-64 64v64h-32v-64c0-53.119 42.881-96 96-96 26.561 0 50.561 10.881 67.84 28.16s28.16 41.279 28.16 67.84z" fill="#c8fa64"/><path d="m208 224c0 17.6-14.4 32-32 32s-32-14.4-32-32c0-11.84 6.4-22.08 16-27.52v-36.48h32v36.48c9.6 5.44 16 15.68 16 27.52z" fill="#0c0"/><path d="m368 224c0 17.6-14.4 32-32 32s-32-14.4-32-32c0-11.84 6.4-22.08 16-27.52v-36.48h32v36.48c9.6 5.44 16 15.68 16 27.52z" fill="#0c0"/><path d="m96 416h320v32h-320z" fill="#c8fa64"/></g></svg>