<svg id="Capa_1" enable-background="new 0 0 512 512" height="512" viewBox="0 0 512 512" width="512" xmlns="http://www.w3.org/2000/svg"><g id="Dustbin_1_"><path d="m96 160h320v352h-320z" fill="#f9f"/><path d="m448 160h-384v-64c0-17.673 14.327-32 32-32h320c17.673 0 32 14.327 32 32z" fill="#d580ff"/><path d="m320 64h-32v-32h-64v32h-32v-32c0-17.673 14.327-32 32-32h64c17.673 0 32 14.327 32 32z" fill="#f9f"/><path d="m96 96h320v64h-320z" fill="#96f"/><g fill="#d580ff"><path d="m144 224h32v224h-32z"/><path d="m240 224h32v224h-32z"/><path d="m336 224h32v224h-32z"/></g></g></svg>