<svg id="Capa_1" enable-background="new 0 0 512 512" height="512" viewBox="0 0 512 512" width="512" xmlns="http://www.w3.org/2000/svg"><g id="Lock"><path d="m64 224h384v288h-384z" fill="#ffce33"/><path d="m384 128v96h-64v-96c0-17.6-7.039-33.6-18.881-45.119-11.519-11.842-27.519-18.881-45.119-18.881-35.199 0-64 28.801-64 64v96h-64v-96c0-70.721 57.279-128 128-128 35.199 0 67.199 14.4 90.561 37.439 23.039 23.362 37.439 55.362 37.439 90.561z" fill="#fffa50"/><path d="m288 352c0 11.84-6.4 22.08-16 27.52v36.48h-32v-36.48c-9.6-5.439-16-15.68-16-27.52 0-17.6 14.4-32 32-32s32 14.4 32 32z" fill="#fffa50"/><g fill="#ffa65c"><path d="m128 224h64v64h-64z"/><path d="m320 224h64v64h-64z"/></g></g></svg>