<svg id="Capa_1" enable-background="new 0 0 512 512" height="512" viewBox="0 0 512 512" width="512" xmlns="http://www.w3.org/2000/svg"><g id="Briefcase"><path d="m512 144v160c-11.199 0-21.76.959-32 2.559-80.961 10.88-135.359 61.441-224 61.441s-143.039-50.561-224-61.441c-10.24-1.6-20.801-2.559-32-2.559v-160c0-17.6 14.4-32 32-32h448c17.6 0 32 14.4 32 32z" fill="#f9f"/><path d="m352 112h-32v-64h-128v64h-32v-64c0-17.673 14.327-32 32-32h128c17.673 0 32 14.327 32 32z" fill="#d580ff"/><path d="m480 208v98.559c-80.961 10.88-135.359 61.441-224 61.441s-143.039-50.561-224-61.441v-98.559z" fill="#96f"/><path d="m480 306.559v189.441h-448v-189.441c80.961 10.88 135.359 61.441 224 61.441s143.039-50.561 224-61.441z" fill="#d580ff"/></g></svg>