<svg id="Capa_1" enable-background="new 0 0 512 512" height="512" viewBox="0 0 512 512" width="512" xmlns="http://www.w3.org/2000/svg"><g id="Mixer"><path d="m432 0h32v512h-32z" fill="#4db5ff"/><path d="m464 66.24v123.52c-5.119 1.6-10.561 2.24-16 2.24s-10.881-.641-16-2.24v-123.52c5.119-1.602 10.561-2.24 16-2.24s10.881.639 16 2.24z" fill="#37f"/><path d="m432 66.24v123.52c-27.52-7.041-48-32-48-61.76s20.48-54.721 48-61.76z" fill="#80eaff"/><path d="m512 128c0 29.76-20.48 54.719-48 61.76v-123.52c27.52 7.039 48 32 48 61.76z" fill="#80eaff"/><path d="m176 0h32v512h-32z" fill="#4db5ff"/><path d="m208 66.24v123.52c-5.119 1.6-10.561 2.24-16 2.24s-10.881-.641-16-2.24v-123.52c5.119-1.602 10.561-2.24 16-2.24s10.881.639 16 2.24z" fill="#37f"/><path d="m176 66.24v123.52c-27.52-7.041-48-32-48-61.76s20.48-54.721 48-61.76z" fill="#80eaff"/><path d="m256 128c0 29.76-20.48 54.719-48 61.76v-123.52c27.52 7.039 48 32 48 61.76z" fill="#80eaff"/><path d="m304 0h32v512h-32z" fill="#4db5ff"/><path d="m336 445.76v-123.52c-5.119-1.6-10.561-2.24-16-2.24s-10.881.641-16 2.24v123.52c5.119 1.602 10.561 2.24 16 2.24s10.881-.639 16-2.24z" fill="#37f"/><path d="m304 445.76v-123.52c-27.52 7.041-48 32-48 61.76s20.48 54.721 48 61.76z" fill="#80eaff"/><path d="m384 384c0-29.76-20.48-54.719-48-61.76v123.52c27.52-7.039 48-32 48-61.76z" fill="#80eaff"/><path d="m48 0h32v512h-32z" fill="#4db5ff"/><path d="m80 445.76v-123.52c-5.119-1.6-10.561-2.24-16-2.24s-10.881.641-16 2.24v123.52c5.119 1.602 10.561 2.24 16 2.24s10.881-.639 16-2.24z" fill="#37f"/><g fill="#80eaff"><path d="m48 445.76v-123.52c-27.52 7.041-48 32-48 61.76s20.48 54.721 48 61.76z"/><path d="m128 384c0-29.76-20.48-54.719-48-61.76v123.52c27.52-7.039 48-32 48-61.76z"/></g></g></svg>