<svg id="Capa_1" enable-background="new 0 0 512 512" height="512" viewBox="0 0 512 512" width="512" xmlns="http://www.w3.org/2000/svg"><g id="Mouse"><path d="m224 512c-70.693 0-128-57.307-128-128v-160c0-35.346 28.654-64 64-64h128c35.346 0 64 28.654 64 64v160c0 70.693-57.307 128-128 128z" fill="#ffce33"/><path d="m416 0v32c0 35.346-28.654 64-64 64h-80c-17.673 0-32 14.327-32 32v32h-32v-32c0-35.346 28.654-64 64-64h80c17.673 0 32-14.327 32-32v-32z" fill="#fffa64"/><path d="m208 160h32v96h-32z" fill="#ffa65c"/><g fill="#fffa64"><path d="m96 288h32v32h-32z"/><path d="m96 352h32v32h-32z"/><path d="m320 288h32v32h-32z"/><path d="m320 352h32v32h-32z"/></g></g></svg>