<svg id="Capa_1" enable-background="new 0 0 512 512" height="512" viewBox="0 0 512 512" width="512" xmlns="http://www.w3.org/2000/svg"><g id="Focus"><path d="m447.359 240c-7.679-93.121-82.24-167.68-175.359-175.361-5.119-.319-10.561-.639-16-.639s-10.881.32-16 .639c-93.119 7.681-167.68 82.24-175.359 175.361-.321 5.119-.641 10.559-.641 16 0 5.439.32 10.879.641 16 7.68 93.119 82.24 167.68 175.359 175.359 5.119.32 10.561.641 16 .641s10.881-.32 16-.641c93.119-7.68 167.68-82.24 175.359-175.359.32-5.121.641-10.561.641-16 0-5.441-.32-10.881-.641-16zm-32 30.08c-6.08 76.16-69.119 139.199-145.92 145.279-3.839.321-8.638.641-13.439.641s-9.6-.32-14.08-.641c-76.16-6.08-139.199-69.119-145.279-145.92-.321-3.839-.641-8.64-.641-13.439 0-4.801.32-9.6.641-14.08 6.08-76.16 69.119-139.201 145.92-145.281 3.839-.319 8.638-.639 13.439-.639s9.6.32 14.08.639c76.16 6.08 139.199 69.121 145.279 145.92.321 3.841.641 8.64.641 13.441 0 4.799-.32 9.6-.641 14.08z" fill="#ff4db3"/><g fill="#ff8de4"><path d="m128 0v32h-96v96h-32v-128z"/><path d="m384 0v32h96v96h32v-128z"/><path d="m128 512v-32h-96v-96h-32v128z"/><path d="m384 512v-32h96v-96h32v128z"/></g><path d="m272 64.639v32.32c-5.119-.639-10.561-.959-16-.959s-10.881.32-16 .959v-32.32c5.119-.319 10.561-.639 16-.639s10.881.32 16 .639z" fill="#ff0068"/><path d="m272 32v32.639c-5.119-.319-10.561-.639-16-.639s-10.881.32-16 .639v-32.639z" fill="#ff8de4"/><path d="m256 96c5.439 0 10.881.32 16 .959v31.041h-32v-31.041c5.119-.639 10.561-.959 16-.959z" fill="#ff8de4"/><path d="m272 415.039v32.32c-5.119.32-10.561.641-16 .641s-10.881-.32-16-.641v-32.32c5.119.641 10.561.961 16 .961s10.881-.32 16-.961z" fill="#ff0068"/><path d="m272 384v31.039c-5.119.641-10.561.961-16 .961s-10.881-.32-16-.961v-31.039z" fill="#ff8de4"/><path d="m256 448c5.439 0 10.881-.32 16-.641v32.641h-32v-32.641c5.119.321 10.561.641 16 .641z" fill="#ff8de4"/><path d="m96 256c0 5.439.32 10.879.961 16h-32.32c-.321-5.121-.641-10.561-.641-16 0-5.441.32-10.881.641-16h32.32c-.641 5.119-.961 10.559-.961 16z" fill="#ff0068"/><path d="m64.641 240c-.321 5.119-.641 10.559-.641 16 0 5.439.32 10.879.641 16h-32.641v-32z" fill="#ff8de4"/><path d="m128 240v32h-31.039c-.641-5.121-.961-10.561-.961-16 0-5.441.32-10.881.961-16z" fill="#ff8de4"/><path d="m448 256c0 5.439-.32 10.879-.641 16h-32.32c.641-5.121.961-10.561.961-16 0-5.441-.32-10.881-.961-16h32.32c.321 5.119.641 10.559.641 16z" fill="#ff0068"/><path d="m415.039 240c.641 5.119.961 10.559.961 16 0 5.439-.32 10.879-.961 16h-31.039v-32z" fill="#ff8de4"/><path d="m480 240v32h-32.641c.32-5.121.641-10.561.641-16 0-5.441-.32-10.881-.641-16z" fill="#ff8de4"/></g></svg>