<svg id="Capa_1" enable-background="new 0 0 512 512" height="512" viewBox="0 0 512 512" width="512" xmlns="http://www.w3.org/2000/svg"><g id="Music_Tape"><path d="m512 112v256c0 17.6-14.4 32-32 32h-448c-17.6 0-32-14.4-32-32v-256c0-17.6 14.4-32 32-32h448c17.6 0 32 14.4 32 32z" fill="#4de600"/><path d="m403.52 400h-295.04c0-3.201.32-6.721 1.6-10.24l10.561-32c4.479-12.801 16.639-21.76 30.398-21.76h209.922c13.76 0 25.92 8.959 30.398 21.76l10.561 32c1.279 3.519 1.6 7.039 1.6 10.24z" fill="#0c0"/><path d="m403.52 400c0 16.959-13.76 32-32 32h-231.04c-18.24 0-32-15.041-32-32z" fill="#c8fa64"/><circle cx="352" cy="240" fill="#c8fa64" r="64"/><circle cx="352" cy="240" fill="#4de600" r="32"/><circle cx="160" cy="240" fill="#c8fa64" r="64"/><circle cx="160" cy="240" fill="#4de600" r="32"/><g fill="#c8fa64"><circle cx="48" cy="128" r="16"/><circle cx="48" cy="352" r="16"/><circle cx="464" cy="128" r="16"/><circle cx="464" cy="352" r="16"/></g></g></svg>