<svg id="Capa_1" enable-background="new 0 0 512 512" height="512" viewBox="0 0 512 512" width="512" xmlns="http://www.w3.org/2000/svg"><g id="Server"><path d="m512 448v32h-512v-32h240v-96h32v96z" fill="#ff8de4"/><path d="m432 160h-352c-44.183 0-80-35.817-80-80 0-44.183 35.817-80 80-80h352c44.183 0 80 35.817 80 80 0 44.183-35.817 80-80 80z" fill="#ff4db3"/><circle cx="80" cy="80" fill="#ff8de4" r="16"/><circle cx="144" cy="80" fill="#ff8de4" r="16"/><circle cx="208" cy="80" fill="#ff8de4" r="16"/><path d="m432 96h-160c-8.837 0-16-7.163-16-16 0-8.837 7.163-16 16-16h160c8.837 0 16 7.163 16 16 0 8.837-7.163 16-16 16z" fill="#ff8de4"/><path d="m432 352h-352c-44.183 0-80-35.817-80-80 0-44.183 35.817-80 80-80h352c44.183 0 80 35.817 80 80 0 44.183-35.817 80-80 80z" fill="#ff4db3"/><g fill="#ff8de4"><circle cx="80" cy="272" r="16"/><circle cx="144" cy="272" r="16"/><circle cx="208" cy="272" r="16"/><path d="m432 288h-160c-8.837 0-16-7.163-16-16 0-8.837 7.163-16 16-16h160c8.837 0 16 7.163 16 16 0 8.837-7.163 16-16 16z"/><path d="m240 160h32v32h-32z"/></g><path d="m320 448v32h-128v-32h48v-32h32v32z" fill="#ff0068"/><path d="m192 416h48v32h-48z" fill="#ff4db3"/><path d="m272 416h48v32h-48z" fill="#ff4db3"/><path d="m192 480h128v32h-128z" fill="#ff4db3"/></g></svg>