<svg id="Capa_1" enable-background="new 0 0 512 512" height="512" viewBox="0 0 512 512" width="512" xmlns="http://www.w3.org/2000/svg"><g id="Checklist"><path d="m336 512h-256c-17.673 0-32-14.327-32-32v-384c0-17.673 14.327-32 32-32h256c17.673 0 32 14.327 32 32v384c0 17.673-14.327 32-32 32z" fill="#f9f"/><g fill="#d580ff"><path d="m112 192h32v32h-32z"/><path d="m176 192h128v32h-128z"/><path d="m112 256h32v32h-32z"/><path d="m176 256h128v32h-128z"/><path d="m112 320h32v32h-32z"/><path d="m176 320h128v32h-128z"/><path d="m112 384h32v32h-32z"/><path d="m176 384h128v32h-128z"/></g><path d="m112 64h192v32h-192z" fill="#96f"/><path d="m272 32h-32c0-17.674-14.326-32-32-32s-32 14.326-32 32h-32c-17.674 0-32 14.326-32 32h192c0-17.674-14.326-32-32-32z" fill="#d580ff"/><path d="m464 448-32 64-32-64z" fill="#d580ff"/><path d="m400 128h64v320h-64z" fill="#f9f"/><path d="m400 192h64v32h-64z" fill="#d580ff"/></g></svg>