<svg id="Capa_1" enable-background="new 0 0 512 512" height="512" viewBox="0 0 512 512" width="512" xmlns="http://www.w3.org/2000/svg"><g id="Email"><path d="m512 208v288h-512v-288l96 60.16 160 99.84 160-99.84z" fill="#4db5ff"/><path d="m416 268.16v163.84h-320v-163.84l160 99.84z" fill="#37f"/><path d="m416 16v252.16l-160 99.84-160-99.84v-252.16z" fill="#4db5ff"/><g fill="#80eaff"><path d="m96 148.16v120l-96-60.16z"/><path d="m512 208-96 60.16v-120z"/><path d="m160 80h32v32h-32z"/><path d="m224 80h128v32h-128z"/><path d="m160 144h32v32h-32z"/><path d="m224 144h128v32h-128z"/><path d="m160 208h32v32h-32z"/><path d="m224 208h128v32h-128z"/></g></g></svg>