<svg id="Capa_1" enable-background="new 0 0 512 512" height="512" viewBox="0 0 512 512" width="512" xmlns="http://www.w3.org/2000/svg"><g id="Bell"><path d="m416 416h-320c17.6 0 32-14.4 32-32v-192c0-59.52 40.641-109.76 96-123.84 10.24-2.881 20.801-4.16 32-4.16s21.76 1.279 32 4.16c22.4 5.76 42.561 17.6 58.561 33.279 23.039 23.36 37.439 55.36 37.439 90.561v192c0 17.6 14.4 32 32 32z" fill="#ffce33"/><path d="m64 416h384v32h-384z" fill="#fffa64"/><path d="m128 320h256v32h-256z" fill="#fffa64"/><path d="m288 68.16v27.84c0 17.6-14.4 32-32 32s-32-14.4-32-32v-27.84c10.24-2.881 20.801-4.16 32-4.16s21.76 1.279 32 4.16z" fill="#ffa65c"/><path d="m288 32v36.16c-10.24-2.881-20.801-4.16-32-4.16s-21.76 1.279-32 4.16v-36.16c0-17.6 14.4-32 32-32s32 14.4 32 32z" fill="#fffa64"/><path d="m256 512c-17.673 0-32-14.327-32-32v-32h64v32c0 17.673-14.327 32-32 32z" fill="#ffce33"/></g></svg>