<svg id="Capa_1" enable-background="new 0 0 512 512" height="512" viewBox="0 0 512 512" width="512" xmlns="http://www.w3.org/2000/svg"><g id="Chat"><path d="m288 368c0 79.68-64.32 144-144 144h-112l22.08-31.68c-32.961-26.24-54.08-66.881-54.08-112.32 0-79.68 64.32-144 144-144 8 0 15.68.639 23.359 1.92 60.801 9.92 108.801 57.92 118.721 118.719 1.279 7.681 1.92 15.361 1.92 23.361z" fill="#d580ff"/><circle cx="80" cy="368" fill="#f9f" r="16"/><circle cx="144" cy="368" fill="#f9f" r="16"/><circle cx="208" cy="368" fill="#f9f" r="16"/><path d="m286.08 344.639c-56.961-16.639-102.08-61.76-118.721-118.719 60.801 9.92 108.801 57.92 118.721 118.719z" fill="#96f"/><path d="m445.439 313.6 34.561 38.4h-144c-17.279 0-33.92-2.561-49.92-7.361-9.92-60.799-57.92-108.799-118.721-118.719-4.799-16-7.359-32.641-7.359-49.92 0-97.281 78.721-176 176-176s176 78.719 176 176c0 56-25.92 105.6-66.561 137.6z" fill="#f9f"/><g fill="#d580ff"><path d="m336 256c44.184 0 80-35.818 80-80h-160c0 44.182 35.816 80 80 80z"/><path d="m256 96h64v32h-64z"/><path d="m352 96h64v32h-64z"/></g></g></svg>