<svg id="Capa_1" enable-background="new 0 0 512 512" height="512" viewBox="0 0 512 512" width="512" xmlns="http://www.w3.org/2000/svg"><g id="Filter"><path d="m512 160-192 192v96h-128v-96l-192-192z" fill="#ffce33"/><circle cx="128" cy="64" fill="#fffa64" r="64"/><path d="m320 448h-128c0-35.201 28.801-64 64-64s64 28.799 64 64z" fill="#ffa65c"/><path d="m320 448c0 35.199-28.801 64-64 64s-64-28.801-64-64z" fill="#fffa64"/><path d="m416 160c0 35.199-28.801 64-64 64s-64-28.801-64-64z" fill="#ffa65c"/><path d="m416 160h-128c0-35.201 28.801-64 64-64s64 28.799 64 64z" fill="#fffa64"/></g></svg>