<svg id="Capa_1" enable-background="new 0 0 512 512" height="512" viewBox="0 0 512 512" width="512" xmlns="http://www.w3.org/2000/svg"><g id="House"><path d="m448 232.32v241.92h-384v-241.92l192-153.599z" fill="#4db5ff"/><g><path d="m505.92 237.76-19.84 24.961-38.08-30.401-192-153.599-192 153.599-38.08 30.401-19.84-24.961 57.92-46.401 192-153.599 192 153.599z" fill="#80eaff"/></g><path d="m160 474.24h-96v-128c35.199 0 64 28.799 64 64 0 2.879-.32 5.76-.641 8.32 19.522 10.879 32.641 32.001 32.641 55.68z" fill="#37f"/><path d="m64 346.24v128h-64v-160c17.6 0 33.6 7.039 45.119 18.879 4.16 4.16 7.682 8.641 10.561 13.76 2.56-.318 5.439-.639 8.32-.639z" fill="#80eaff"/><path d="m448 346.24v128h-96c0-23.68 13.119-44.801 32.641-55.68-.321-2.56-.641-5.441-.641-8.32 0-35.201 28.801-64 64-64z" fill="#37f"/><g fill="#80eaff"><path d="m512 314.24v160h-64v-128c2.881 0 5.76.32 8.32.639 2.879-5.119 6.4-9.6 10.561-13.76 11.519-11.84 27.519-18.879 45.119-18.879z"/><path d="m320 474.24h-128v-96c0-35.346 28.654-64 64-64 35.346 0 64 28.654 64 64z"/><circle cx="256" cy="218.24" r="32"/></g></g></svg>