<svg id="Capa_1" enable-background="new 0 0 512.32 512.32" height="512" viewBox="0 0 512.32 512.32" width="512" xmlns="http://www.w3.org/2000/svg"><g id="Search"><path d="m512.32 208c0 114.879-93.119 208-208 208-46.08 0-88.32-14.721-122.561-40l22.08-22.08-45.439-45.44-22.08 22.078c-25.279-34.238-40-76.479-40-122.559 0-114.881 93.119-208 208-208s208 93.12 208 208.001z" fill="#c8fa64"/><path d="m203.84 353.92-22.08 22.08c-17.279-12.48-32.959-28.16-45.439-45.441l22.08-22.078z" fill="#0c0"/><g fill="#4de600"><path d="m181.76 376-136.321 136.32-45.439-45.441 136.32-136.32c12.481 17.281 28.16 32.961 45.44 45.441z"/><circle cx="304.32" cy="208" r="144"/></g></g></svg>