<svg id="Capa_1" enable-background="new 0 0 512 512" height="512" viewBox="0 0 512 512" width="512" xmlns="http://www.w3.org/2000/svg"><g id="Compass"><path d="m256 0c-35.199 0-64 28.799-64 64 0 29.76 20.48 54.719 48 61.76 5.119 1.6 10.561 2.24 16 2.24s10.881-.641 16-2.24c27.52-7.041 48-32 48-61.76 0-35.201-28.801-64-64-64zm16 91.52c-4.801 2.88-10.24 4.48-16 4.48s-11.199-1.6-16-4.48c-9.6-5.439-16-15.68-16-27.52 0-17.6 14.4-32 32-32s32 14.4 32 32c0 11.84-6.4 22.08-16 27.52z" fill="#ff8de4"/><path d="m272 91.52v34.24c-5.119 1.6-10.561 2.24-16 2.24s-10.881-.641-16-2.24v-34.24c4.801 2.88 10.24 4.48 16 4.48s11.199-1.6 16-4.48z" fill="#ff0068"/><path d="m240 125.76c5.119 1.6 10.561 2.24 16 2.24-5.439 0-10.881.32-16 .639z" fill="#ff4db3"/><path d="m272 80v11.52c-4.801 2.88-10.24 4.48-16 4.48s-11.199-1.6-16-4.48v-11.52c0-8.961 7.039-16 16-16s16 7.039 16 16z" fill="#ff4db3"/><path d="m256 128c5.439 0 10.881-.641 16-2.24v2.879c-5.119-.319-10.561-.639-16-.639z" fill="#ff4db3"/><circle cx="256" cy="320" fill="#ff8de4" r="192"/><circle cx="256" cy="320" fill="#ff4db3" r="160"/><g fill="#ff8de4"><path d="m240 192h32v32h-32z"/><path d="m240 416h32v32h-32z"/><path d="m128 304h32v32h-32z"/><path d="m352 304h32v32h-32z"/><path d="m188.118 252.118 45.255 90.509 90.509 45.255-45.255-90.509z"/></g></g></svg>