<svg id="Capa_1" enable-background="new 0 0 512 512" height="512" viewBox="0 0 512 512" width="512" xmlns="http://www.w3.org/2000/svg"><g id="Camera"><path d="m512 144v288c0 17.673-14.327 32-32 32h-448c-17.673 0-32-14.327-32-32v-288c0-17.673 14.327-32 32-32h448c17.673 0 32 14.327 32 32z" fill="#4db5ff"/><path d="m356.16 112c0 16.639-13.121 32-32 32h-136.32c-18.879 0-32-15.361-32-32z" fill="#37f"/><path d="m512 288v32h-161.6c-7.361 45.439-47.041 80-94.4 80s-87.039-34.561-94.4-80h-161.6v-32h161.6c7.361-45.441 47.041-80 94.4-80s87.039 34.559 94.4 80z" fill="#80eaff"/><path d="m356.16 112h-200.32c0-5.76 1.6-12.16 5.439-17.6l21.121-32c6.08-8.961 16-14.4 26.879-14.4h93.441c10.879 0 20.799 5.439 26.879 14.4l21.121 32c3.841 5.44 5.44 11.84 5.44 17.6z" fill="#80eaff"/><circle cx="256" cy="304" fill="#4db5ff" r="64"/><path d="m32 80h64v32h-64z" fill="#80eaff"/><path d="m32 112h64v32h-64z" fill="#37f"/><path d="m384 144h96v64h-96z" fill="#80eaff"/></g></svg>