<svg id="Capa_1" enable-background="new 0 0 512 512" height="512" viewBox="0 0 512 512" width="512" xmlns="http://www.w3.org/2000/svg"><g id="Wallet"><path d="m416 496h-416v-352h416c17.673 0 32 14.327 32 32v288c0 17.673-14.327 32-32 32z" fill="#4de600"/><path d="m448 400h-48c-44.183 0-80-35.817-80-80 0-44.183 35.817-80 80-80h48z" fill="#0c0"/><g fill="#c8fa64"><circle cx="400" cy="320" r="16"/><path d="m448 240h64v160h-64z"/><path d="m32 176h32v32h-32z"/><path d="m32 240h32v32h-32z"/><path d="m32 304h32v32h-32z"/><path d="m32 368h32v32h-32z"/><path d="m32 432h32v32h-32z"/><path d="m352 144h-256l128-128z"/></g></g></svg>