<svg id="Capa_1" enable-background="new 0 0 512 512" height="512" viewBox="0 0 512 512" width="512" xmlns="http://www.w3.org/2000/svg"><g id="Notebook"><path d="m400 480h-288v-480h288c17.673 0 32 14.327 32 32v416c0 17.673-14.327 32-32 32z" fill="#ff4db3"/><g fill="#ff8de4"><path d="m80 32h32v32h-32z"/><path d="m80 160h32v32h-32z"/><path d="m80 288h32v32h-32z"/><path d="m80 416h32v32h-32z"/></g><path d="m112 32h32v32h-32z" fill="#ff0068"/><path d="m112 160h32v32h-32z" fill="#ff0068"/><path d="m112 288h32v32h-32z" fill="#ff0068"/><path d="m112 416h32v32h-32z" fill="#ff0068"/><path d="m304 480h96v32h-96z" fill="#ff8de4"/><path d="m176 128h192v64h-192z" fill="#ff8de4"/><path d="m176 224h192v32h-192z" fill="#ff8de4"/><path d="m176 288h192v32h-192z" fill="#ff8de4"/></g></svg>