<svg id="Capa_1" enable-background="new 0 0 512 512" height="512" viewBox="0 0 512 512" width="512" xmlns="http://www.w3.org/2000/svg"><g id="Attached_File"><path d="m416 192v320h-320v-416h224z" fill="#f9f"/><path d="m416 192h-96v-96z" fill="#d580ff"/><path d="m224 96v48c0 26.561-21.439 48-48 48s-48-21.439-48-48v-48h32v48c0 8.961 7.039 16 16 16s16-7.039 16-16v-48z" fill="#96f"/><g fill="#d580ff"><path d="m192 64h32v32h-32z"/><path d="m288 80v16h-32v-16c0-26.561-21.439-48-48-48s-48 21.439-48 48v16h-32v-16c0-44.16 35.84-80 80-80s80 35.84 80 80z"/><path d="m160 256h32v32h-32z"/><path d="m224 256h128v32h-128z"/><path d="m160 320h32v32h-32z"/><path d="m224 320h128v32h-128z"/><path d="m160 384h32v32h-32z"/><path d="m224 384h128v32h-128z"/></g></g></svg>