<svg id="Capa_1" enable-background="new 0 0 512 512" height="512" viewBox="0 0 512 512" width="512" xmlns="http://www.w3.org/2000/svg"><g id="Like"><path d="m451.84 64c0 16.32-6.08 32.639-18.561 45.119l-113.279 113.281-112.961-113.281c-24.959-24.959-24.959-65.6 0-90.561 12.16-12.478 28.481-18.558 45.121-18.558s32.641 6.08 45.119 18.559l22.721 22.72 22.721-22.721c24.959-24.639 65.6-24.639 90.559 0 12.48 12.481 18.56 28.801 18.56 45.442z" fill="#ffce33"/><path d="m448 384c17.6 0 32 14.4 32 32s-14.4 32-32 32c17.6 0 32 14.4 32 32s-14.4 32-32 32h-141.439c-32.961 0-64.961-11.201-90.561-32h-24v-192c53.119 0 96-42.881 96-96v-96h32c17.6 0 32 14.4 32 32v128h96c17.6 0 32 14.4 32 32s-14.4 32-32 32c17.6 0 32 14.4 32 32s-14.4 32-32 32z" fill="#fffa64"/><path d="m352 128v62.4l-32 32-32-32v-94.4h32c17.6 0 32 14.4 32 32z" fill="#ffa65c"/><path d="m32 256h160v256h-160z" fill="#ffce33"/><circle cx="144" cy="464" fill="#fffa64" r="16"/></g></svg>