<svg id="Capa_1" enable-background="new 0 0 512 512" height="512" viewBox="0 0 512 512" width="512" xmlns="http://www.w3.org/2000/svg"><g id="Shield"><g fill="#ff4db3"><path d="m480 464 32 32h-128v-64h128z"/><path d="m128 432v64h-128l32-32-32-32z"/><path d="m416 80v188.799c0 49.92-18.24 96-49.279 131.201-28.16 32-66.24 55.039-110.721 64-44.48-8.961-82.561-32-110.721-64-31.039-35.201-49.279-81.281-49.279-131.201v-188.799c35.199 0 64-28.801 64-64h192c0 35.199 28.801 64 64 64z"/></g><path d="m256 398.094c-56.328-17.031-96-69.469-96-129.266v-142c19.391-11.25 35.578-27.438 46.828-46.828h98.344c11.25 19.391 27.438 35.578 46.828 46.828v142c0 59.797-39.672 112.235-96 129.266z" fill="#ff8de4"/><path d="m366.721 400c-28.16 32-66.24 55.039-110.721 64-44.48-8.961-82.561-32-110.721-64z" fill="#ff0068"/><path d="m128 464v-32h-64v-32h81.279c28.16 32 66.24 55.039 110.721 64z" fill="#ff8de4"/><path d="m384 432h64v32h-64z" fill="#ff0068"/><path d="m448 400v32h-64v32h-128c44.48-8.961 82.561-32 110.721-64z" fill="#ff8de4"/><path d="m64 432h64v32h-64z" fill="#ff0068"/></g></svg>