<svg id="Capa_1" enable-background="new 0 0 512 512" height="512" viewBox="0 0 512 512" width="512" xmlns="http://www.w3.org/2000/svg"><g id="Book"><path d="m256 80v352c0-35.201-28.801-64-64-64h-192v-352h192c35.346 0 64 28.654 64 64z" fill="#4de600"/><path d="m256 432h-256v-64h192c35.199 0 64 28.799 64 64z" fill="#c8fa64"/><path d="m256 80v352c0-35.201 28.801-64 64-64h192v-352h-192c-35.346 0-64 28.654-64 64z" fill="#4de600"/><g fill="#c8fa64"><path d="m256 432h256v-64h-192c-35.199 0-64 28.799-64 64z"/><path d="m64 80h128v32h-128z"/><path d="m64 176h128v32h-128z"/><path d="m64 272h128v32h-128z"/><path d="m320 80h128v32h-128z"/><path d="m320 176h128v32h-128z"/><path d="m320 272h128v32h-128z"/></g><path d="m448 496-48-32-48 32v-64h96z" fill="#4de600"/><path d="m352 368h96v64h-96z" fill="#0c0"/></g></svg>