<svg id="Capa_1" enable-background="new 0 0 512 512" height="512" viewBox="0 0 512 512" width="512" xmlns="http://www.w3.org/2000/svg"><g id="News"><path d="m16 0h320v448h-320z" fill="#f9f"/><path d="m240 320h96v128h-96z" fill="#96f"/><g fill="#d580ff"><path d="m432 320v160c0 17.6-14.4 32-32 32h-128c-17.6 0-32-14.4-32-32v-32h96v-128z"/><path d="m496 384v64c0 17.673-14.327 32-32 32h-32v-32h32v-64h-32v-32h32c17.673 0 32 14.327 32 32z"/><path d="m48 128h128v160h-128z"/><path d="m208 128h96v32h-96z"/><path d="m208 192h96v32h-96z"/><path d="m208 256h96v32h-96z"/><path d="m48 320h160v32h-160z"/><path d="m48 384h160v32h-160z"/><path d="m48 32h256v64h-256z"/></g></g></svg>