<svg id="Capa_1" enable-background="new 0 0 512 512" height="512" viewBox="0 0 512 512" width="512" xmlns="http://www.w3.org/2000/svg"><g id="Calendar"><path d="m0 144h512v352h-512z" fill="#f9f"/><path d="m0 48h512v96h-512z" fill="#d580ff"/><path d="m128 112v-32c-17.673 0-32-14.327-32-32h-32c0 35.346 28.654 64 64 64z" fill="#96f"/><path d="m288 112v-32c-17.673 0-32-14.327-32-32h-32c0 35.346 28.654 64 64 64z" fill="#96f"/><path d="m448 112v-32c-17.673 0-32-14.327-32-32h-32c0 35.346 28.654 64 64 64z" fill="#96f"/><g fill="#f9f"><path d="m64 16h32v32h-32z"/><path d="m224 16h32v32h-32z"/><path d="m384 16h32v32h-32z"/></g><path d="m256 208-34.604 70.116-77.377 11.244 55.991 54.577-13.218 77.065 69.208-36.386c26.006 13.672 43.959 23.11 69.208 36.385l-13.218-77.065 55.991-54.577-77.377-11.244z" fill="#d580ff"/></g></svg>