<svg id="Capa_1" enable-background="new 0 0 512 512" height="512" viewBox="0 0 512 512" width="512" xmlns="http://www.w3.org/2000/svg"><g id="Speaker"><path d="m384 48v384c0-53.121-42.881-96-96-96h-224v-192h224c53.119 0 96-42.881 96-96z" fill="#4de600"/><path d="m384 208v64h-32c-17.6 0-32-14.4-32-32s14.4-32 32-32z" fill="#0c0"/><path d="m448 240c0 17.6-14.4 32-32 32h-32v-64h32c17.6 0 32 14.4 32 32z" fill="#c8fa64"/><path d="m0 176h64v128h-64z" fill="#c8fa64"/><path d="m64 176h32v128h-32z" fill="#0c0"/><g fill="#c8fa64"><path d="m512 240c0 26.559-10.881 50.559-28.16 67.84-17.279 17.279-41.279 28.16-67.84 28.16v-32c17.6 0 33.6-7.041 45.119-18.881 11.842-11.519 18.881-27.519 18.881-45.119 0-35.201-28.801-64-64-64v-32c53.119 0 96 42.879 96 96z"/><path d="m160 464h-64l32-128h64z"/></g></g></svg>