<svg id="Capa_1" enable-background="new 0 0 512 512" height="512" viewBox="0 0 512 512" width="512" xmlns="http://www.w3.org/2000/svg"><g id="Gamepad"><path d="m400 240h-288c-61.855 0-112 50.145-112 112s50.145 112 112 112c44.602 0 82.793-26.266 100.809-64h86.383c18.016 37.734 56.207 64 100.809 64 61.855 0 112-50.145 112-112s-50.146-112-112.001-112z" fill="#ffce33"/><path d="m448 48v32c0 35.346-28.654 64-64 64h-80c-17.673 0-32 14.327-32 32v32h-32v-32c0-35.346 28.654-64 64-64h80c17.673 0 32-14.327 32-32v-32z" fill="#ffce33"/><g fill="#fffa64"><path d="m160 336h-32v-32h-32v32h-32v32h32v32h32v-32h32z"/><path d="m448 336h-32v-32h-32v32h-32v32h32v32h32v-32h32z"/><path d="m208 336h32v32h-32z"/><path d="m272 336h32v32h-32z"/><path d="m192 208h128v32h-128z"/></g><path d="m192 240h128v32h-128z" fill="#ffa65c"/></g></svg>