<svg id="Capa_1" enable-background="new 0 0 512 512" height="512" viewBox="0 0 512 512" width="512" xmlns="http://www.w3.org/2000/svg"><g id="Startup"><path d="m352 179.52v204.48h-192v-204.48c0-72.321 36.16-139.52 96-179.52 30.08 19.84 53.76 46.719 70.4 77.76 16.639 30.72 25.6 65.599 25.6 101.76z" fill="#ff4db3"/><g fill="#ff8de4"><path d="m160 256v128h-64v32h-32v-96z"/><path d="m448 320v96h-32v-32h-64v-128z"/><circle cx="256" cy="160" r="32"/><path d="m512 512h-512c0-17.6 7.039-33.6 18.881-45.121 11.519-11.84 27.519-18.879 45.119-18.879h96c17.673 0 32-14.327 32-32v-32h128v32c0 17.673 14.327 32 32 32h96c35.199 0 64 28.799 64 64z"/></g><path d="m192 320h128v64h-128z" fill="#ff0068"/></g></svg>