<svg id="Capa_1" enable-background="new 0 0 512 512" height="512" viewBox="0 0 512 512" width="512" xmlns="http://www.w3.org/2000/svg"><g id="Microphone"><path d="m320 160h-128v-96c0-35.346 28.654-64 64-64 35.346 0 64 28.654 64 64z" fill="#80eaff"/><path d="m416 160v96c0 82.879-63.039 151.039-144 159.039v64.961h64v32h-160v-32h64v-64.961c-80.961-8-144-76.16-144-159.039v-96h32v96c0 70.719 57.279 128 128 128s128-57.281 128-128v-96z" fill="#4db5ff"/><path d="m256 352c-53.019 0-96-42.981-96-96v-96h192v96c0 53.019-42.981 96-96 96z" fill="#4db5ff"/><path d="m256 320c-35.346 0-64-28.654-64-64v-96h128v96c0 35.346-28.654 64-64 64z" fill="#37f"/></g></svg>