<svg id="Capa_1" enable-background="new 0 0 512 512" height="512" viewBox="0 0 512 512" width="512" xmlns="http://www.w3.org/2000/svg"><g id="Tag"><path d="m320 64v32l-32-16v-16c0-17.6-14.4-32-32-32s-32 14.4-32 32v64c0 17.6 14.4 32 32 32v32c-35.199 0-64-28.801-64-64v-64c0-35.201 28.801-64 64-64s64 28.799 64 64z" fill="#ff8de4"/><path d="m384 128v384h-256v-384l64-32v32c0 35.199 28.801 64 64 64v-32c-17.6 0-32-14.4-32-32v-48l32-16z" fill="#ff4db3"/><path d="m256 160v32c-35.199 0-64-28.801-64-64v-32l32-16v48c0 17.6 14.4 32 32 32z" fill="#ff0068"/><g fill="#ff8de4"><path d="m160 256h32v32h-32z"/><path d="m224 256h128v32h-128z"/><path d="m160 320h32v32h-32z"/><path d="m224 320h128v32h-128z"/><path d="m160 384h32v32h-32z"/><path d="m224 384h128v32h-128z"/></g></g></svg>