<svg id="Capa_1" enable-background="new 0 0 512 512" height="512" viewBox="0 0 512 512" width="512" xmlns="http://www.w3.org/2000/svg"><g id="Cloud"><path d="m512 256c0 53.119-42.881 96-96 96h-128v-64h64l-96-96-96 96h64v64h-128c-53.119 0-96-42.881-96-96 0-53.121 42.881-96 96-96 1.6 0 3.199.32 4.801.32-2.881-10.24-4.801-21.121-4.801-32.32 0-70.721 57.279-128 128-128 48 0 89.279 26.559 111.039 65.6 5.762-.961 11.201-1.6 16.961-1.6 53.119 0 96 42.879 96 96 0 1.92-.32 3.84-.641 5.76 37.442 13.119 64.641 48.32 64.641 90.24z" fill="#4de600"/><path d="m352 288h-64v64h-64v-64h-64l96-96z" fill="#d580ff"/><path d="m352 288h-64v64h-64v-64h-64l96-96z" fill="#0c0"/><path d="m352 416-96 96-96-96h64v-64h64v64z" fill="#c8fa64"/></g></svg>