<svg height="434pt" viewBox="-36 0 434 434.5" width="434pt" xmlns="http://www.w3.org/2000/svg"><path d="m.25 244.5h361v190h-361zm0 0" fill="#00acea"/><path d="m282.140625 209.011719v-55.511719h49.109375l30 91h-361l30-91h49.109375v55.511719zm0 0" fill="#fedb41"/><path d="m282.140625 153.5v55.511719h-202.78125v-209.011719h153.621094v49.160156h49.160156zm0 0" fill="#00efd1"/><path d="m282.140625 49.160156h-49.160156v-49.160156zm0 0" fill="#00acea"/><path d="m302.144531 217.011719h-242.789062c-4.417969 0-8-3.582031-8-8s3.582031-8 8-8h242.789062c4.417969 0 8 3.582031 8 8s-3.582031 8-8 8zm0 0" fill="#f4b844"/></svg>