<?xml version="1.0" encoding="UTF-8" standalone="no"?>
<svg
   xmlns:dc="http://purl.org/dc/elements/1.1/"
   xmlns:cc="http://creativecommons.org/ns#"
   xmlns:rdf="http://www.w3.org/1999/02/22-rdf-syntax-ns#"
   xmlns:svg="http://www.w3.org/2000/svg"
   xmlns="http://www.w3.org/2000/svg"
   xmlns:sodipodi="http://sodipodi.sourceforge.net/DTD/sodipodi-0.dtd"
   xmlns:inkscape="http://www.inkscape.org/namespaces/inkscape"
   width="150mm"
   height="150mm"
   viewBox="0 0 150 150"
   version="1.1"
   id="svg8"
   inkscape:version="1.0.2 (e86c8708, 2021-01-15)"
   sodipodi:docname="instyle.svg">
  <defs
     id="defs2" />
  <sodipodi:namedview
     id="base"
     pagecolor="#ffffff"
     bordercolor="#666666"
     borderopacity="1.0"
     inkscape:pageopacity="0.0"
     inkscape:pageshadow="2"
     inkscape:zoom="1.4"
     inkscape:cx="196.52045"
     inkscape:cy="346.1597"
     inkscape:document-units="px"
     inkscape:current-layer="g25"
     inkscape:document-rotation="0"
     showgrid="false"
     inkscape:window-width="1440"
     inkscape:window-height="847"
     inkscape:window-x="0"
     inkscape:window-y="25"
     inkscape:window-maximized="1"
     units="mm" />
  <metadata
     id="metadata5">
    <rdf:RDF>
      <cc:Work
         rdf:about="">
        <dc:format>image/svg+xml</dc:format>
        <dc:type
           rdf:resource="http://purl.org/dc/dcmitype/StillImage" />
        <dc:title />
      </cc:Work>
    </rdf:RDF>
  </metadata>
  <g
     inkscape:label="Layer 1"
     inkscape:groupmode="layer"
     id="layer1">
    <g
       id="g25"
       transform="matrix(1.8164145,0,0,1.8164145,-52.2485,-148.83789)">
      <path
         style="fill:#374845;stroke:none;stroke-width:0.352778"
         d="m 32.165773,96.257938 8.882441,14.985192 17.219987,30.09934 10.939239,19.12103 h 0.352777 c 5.898798,-10.09685 10.907889,-20.75709 16.471544,-31.04444 1.91347,-3.53766 3.36621,-8.11319 5.94678,-11.20493 1.27035,-1.52231 5.02108,-1.00337 6.86223,-1.20354 4.993569,-0.54296 10.048879,-3.2325 11.288889,-8.40542 -7.31837,-2.80127 -16.892059,-6.37519 -24.694439,-7.05556 -0.77682,-9.829452 -9.00007,-21.923662 -20.108337,-15.354552 -2.463482,1.456831 -4.513368,3.49437 -6.148846,5.829547 -0.96587,1.379114 -1.742969,3.704096 -3.409103,4.373245 -1.926379,0.773677 -4.967323,0.212866 -7.022606,0.212866 -5.546372,0 -11.04586,-0.352778 -16.580556,-0.352778 M 66.03244,119.89406 c 1.154641,-4.45135 4.199731,-9.95152 -0.33388,-11.9661 0.583803,1.17339 1.020968,1.94448 1.135198,3.7181 0.160027,2.48469 -0.472904,6.07283 -3.62354,7.89522 -0.374015,-2.02495 4.867627,-10.32313 -1.058334,-10.58334 l -0.236235,0.63626 c 2.195059,1.2345 2.532932,4.30888 1.222009,6.03495 -1.171539,1.54199 -2.79405,0.22876 -4.278892,0.99876 -3.171084,1.64462 0.140051,2.54475 -2.919397,6.41099 l -4.042772,-7.18761 c 5.822491,-4.18243 8.22901,-12.70164 16.384914,-8.6126 1.294695,0.64922 1.91353,2.24741 2.227502,3.50835 0.923925,3.71404 -0.714942,6.75635 -4.476573,9.14702 m -17.024678,-16.6719 3.469143,1.46008 -3.469143,-1.46008 m 20.552455,17.02467 c 0,0 3.207475,-4.89229 3.420861,-7.59732 0.238871,-3.0281 -2.271183,-5.03338 -2.271183,-5.03338 7.272652,0.95889 5.349321,9.37215 0.929191,11.63851 m -14.073313,16.86719 c -4.874434,-8.20575 -4.874434,-8.20575 0,0 m 12.7,-9.87777 c -0.100463,1.39777 -0.448473,1.30979 -0.623478,0.92164 -0.148901,-0.33024 0.188049,-0.9124 0.188049,-0.9124 0,0 0.247705,-0.009 0.435429,-0.009 m 1.058333,0.70555 c 0.609295,2.22191 1.520033,2.11667 -0.705555,2.11667 l 0.705555,-2.11667 m 5.776511,3.64658 -1.517752,7.55096 -1.993284,6.2327 -4.162999,10.2439 -1.309195,-3.23711 c -1.243621,-5.15122 -3.595908,-8.28481 -3.595908,-8.28481 -2.44945,-2.78925 -8.395851,-5.39214 -4.129674,-8.65393 0.676311,-0.51717 1.328103,-0.8449 2.112857,-1.14829 l 1.058333,1.76389 -2.633234,1.97493 c -0.983923,0.93987 4.937053,2.10343 7.699303,2.65341 5.425722,1.08021 3.073046,-6.54908 6.338005,-8.87494"
         id="path24"
         sodipodi:nodetypes="ccccccccccsssscccsccccccccccccccscccccsccccccccccccccccc" />
      <circle
         style="fill:#d4aa00;stroke-width:0.264583"
         id="path30"
         sodipodi:type="arc"
         sodipodi:cx="25.513393"
         sodipodi:cy="111.8337"
         sodipodi:rx="3.6852679"
         sodipodi:ry="2.7875743"
         sodipodi:start="0"
         sodipodi:end="0.17756456"
         sodipodi:open="true"
         sodipodi:arc-type="arc"
         d="m 29.198661,111.8337 a 3.6852679,2.7875743 0 0 1 -0.05794,0.49238" />
      <circle
         style="fill:#d4aa00;stroke-width:0.104541"
         id="path37"
         cx="68.602684"
         cy="126.0078"
         r="5.3389134" />
      <ellipse
         style="fill:#374845;stroke-width:0.0760897"
         id="path37-6"
         cx="68.555428"
         cy="126.03145"
         rx="3.9215028"
         ry="3.8506322" />
      <ellipse
         style="fill:#ffcc00;stroke-width:0.0224476"
         id="path37-6-5"
         cx="67.26841"
         cy="124.4975"
         rx="1.1652859"
         ry="1.1278239" />
    </g>
  </g>
</svg>
